<?xml version="1.0" ?><svg style="enable-background:new 0 0 24 24;" version="1.1" viewBox="0 0 24 24" xml:space="preserve" xmlns="http://www.w3.org/2000/svg" xmlns:xlink="http://www.w3.org/1999/xlink"><style type="text/css">
	.st0{display:none;}
	.st1{display:inline;}
	.st2{opacity:0.2;fill:none;stroke:#000000;stroke-width:5.000000e-02;stroke-miterlimit:10;}
</style><g class="st0" id="grid_system"/><g id="_icons"><path d="M19.7,13.3c-0.4-0.4-1-0.4-1.4,0l-2,2c-0.4,0.4-0.4,1,0,1.4s1,0.4,1.4,0l0.2-0.2c-0.3,1.7-2.4,3.2-5,3.5V11h2   c0.6,0,1-0.4,1-1s-0.4-1-1-1h-2V7.8c1.2-0.4,2-1.5,2-2.8c0-1.7-1.3-3-3-3S9,3.3,9,5c0,1.3,0.8,2.4,2,2.8V9H9c-0.6,0-1,0.4-1,1   s0.4,1,1,1h2v8.9c-2.6-0.3-4.6-1.7-5-3.5l0.2,0.2C6.5,16.9,6.7,17,7,17s0.5-0.1,0.7-0.3c0.4-0.4,0.4-1,0-1.4l-2-2   c-0.4-0.4-1-0.4-1.4,0l-2,2c-0.4,0.4-0.4,1,0,1.4s1,0.4,1.4,0L4,16.4c0.3,3.1,3.7,5.6,8,5.6s7.7-2.5,8-5.6l0.3,0.3   c0.2,0.2,0.5,0.3,0.7,0.3s0.5-0.1,0.7-0.3c0.4-0.4,0.4-1,0-1.4L19.7,13.3z M12,6c-0.6,0-1-0.4-1-1s0.4-1,1-1s1,0.4,1,1S12.6,6,12,6   z"/></g></svg>