<?xml version="1.0" ?><!DOCTYPE svg  PUBLIC '-//W3C//DTD SVG 1.1//EN'  'http://www.w3.org/Graphics/SVG/1.1/DTD/svg11.dtd'><svg enable-background="new 0 0 100 100" height="100px" id="Calque_1" version="1.1" viewBox="0 0 100 100" width="100px" xml:space="preserve" xmlns="http://www.w3.org/2000/svg" xmlns:xlink="http://www.w3.org/1999/xlink"><path d="M93.91,44.36c0.03,0,0.05,0,0.08-0.01c0.96-0.36,1.54-1.23,1.66-2.5c0.08-0.93-0.101-1.75-0.11-1.78  c-0.01-0.05-0.03-0.09-0.06-0.12c-0.12-0.13-0.32-0.18-0.601-0.25c-0.189-0.05-0.41-0.11-0.63-0.2l-0.02-0.01  c-0.091-0.03-0.19-0.08-0.311-0.12c0.01-0.01,0.021-0.02,0.03-0.03c0.479-0.51,0.59-1.74,0.609-1.88c0-0.07-0.02-0.15-0.079-0.2  c-0.011-0.01-0.021-0.02-0.04-0.03c0.27-0.47,0.56-1.09,0.6-1.18c0.06-0.12,0.01-0.26-0.1-0.32c-0.11-0.06-0.25-0.03-0.32,0.07  c-0.01,0.01-0.04,0.04-0.07,0.07c0.021-0.34-0.02-0.6-0.02-0.62c-0.021-0.12-0.12-0.21-0.24-0.21c-0.09,0-0.17,0.04-0.21,0.11  c-0.561-1.35-1.6-1.51-2.05-1.51c-0.09,0-0.16,0.01-0.221,0.01c-0.47-0.38-1.149-0.46-2.02-0.46c-0.46,0-1.01,0.03-1.64,0.06H88.05  c-1.109,0.05-1.76,0.62-2.1,1.08c-0.28,0.38-0.41,0.76-0.46,0.92c-1.311,1.07-1.19,2.99-1.03,3.98c-0.32-0.19-0.67-0.34-1.06-0.47  c-0.08-0.69-0.28-1.87-0.721-2.99c-0.6-1.54-1.449-2.47-2.52-2.77c-0.24-0.07-0.49-0.1-0.74-0.1c-1.25,0-2.55,0.85-3.96,2.59  c-0.54-0.32-1.19-0.48-1.99-0.48c-1.42,0-3.33,0.53-5.68,1.57c-5.87,2.59-18.5,5.97-19.3,6.18h-0.1c-0.31,0-1.11,0.06-1.65,0.63  c-0.38,0.41-0.55,0.98-0.51,1.71c0.13,2.14,1.04,4.27,1.77,5.69c0.8,1.53,1.56,2.54,1.6,2.58c0.06,0.09,0.19,0.12,0.29,0.08  c1.169-0.521,2.73-1.03,4.15-1.45c-3.54,1.58-7,3.5-9.27,5.16c-1.27,0.93-2.34,1.26-3.11,1.34c0.62-0.2,1.04-0.41,1.07-0.43  c0.07-0.03,0.12-0.101,0.13-0.181c0.01-0.069-0.01-0.149-0.06-0.199c-1.15-1.25-5.77-3.891-8.38-4.79  c-2.07-0.721-5.18-1.86-6.23-2.25c0.13-0.24,0.21-0.66,0.18-1.561c-0.05-1.41-2.04-1.57-3.53-1.57c-0.92,0-2.07,0.06-3.6,0.22  c-0.91,0.09-1.94,0.13-3.06,0.13c-3.26,0-7.04-0.39-9.21-0.96c-1.01-0.26-1.82-0.39-2.48-0.39c-0.97,0-1.44,0.29-1.77,0.57  c-0.29,0.25-0.44,0.7-0.38,1.19c0.06,0.58,0.4,1.06,0.91,1.33c0.52,0.27,0.92,0.76,1.42,1.371c0.35,0.42,0.74,0.899,1.24,1.39  c0.72,0.689,1.69,1.05,2.8,1.05c0.26,0,0.53-0.02,0.82-0.06c0.19-0.03,0.53-0.03,0.78-0.03c0.23,0,0.49,0.01,0.77,0.01  c0.31,0,0.62,0.01,0.94,0.01c0.52,0,0.91-0.01,1.24-0.04c0.8-0.06,1.99-0.26,3.14-0.449c0.63-0.11,1.29-0.221,1.85-0.301  c0.5-0.069,0.79-0.1,1-0.1c0.19,0,0.29,0.021,0.46,0.06c0.18,0.051,0.42,0.11,0.86,0.16c0.98,0.11,1.76,0.511,3.47,1.4  c0.37,0.189,0.79,0.41,1.27,0.65c2.1,1.079,5.95,4.279,7.33,5.449c-0.43,0.051-1,0.16-1.58,0.271c-0.46,0.09-0.92,0.18-1.32,0.24  c-0.3,0.05-0.67,0.069-1.1,0.069c-0.68,0-1.36-0.06-1.73-0.1c0.2-0.73,0.17-1.26-0.09-1.62c-0.21-0.28-0.56-0.43-1.01-0.43  c-0.3,0-0.56,0.069-0.62,0.08c-0.21,0.05-4.52,1.029-6.78,1.529c-0.51,0.11-1.09,0.17-1.71,0.17c-1.67,0-3.3-0.409-4.18-0.63  l-0.16-0.04c-0.4-0.1-1.44-0.54-2.54-1c-1.96-0.83-4.17-1.77-5.08-1.83c-1.07-0.08-1.73,0.101-2.03,0.54  C4.49,57.77,4.5,58.23,4.74,58.8c0.44,1.04,2.98,2.311,3.75,2.67c2.07,0.971,4.19,1.62,5.67,1.721c2.07,0.149,9.02,0.68,11.6,1.43  c2.4,0.689,13.14,1.46,14.23,1.52c0.93,0.051,1.6,0.311,1.61,0.311c0.02,0.01,0.05,0.01,0.07,0.02c0.24,0.011,0.52,0,0.82-0.04  c-0.03,0.04-0.04,0.09-0.04,0.141c0,0.12,0.08,0.22,0.19,0.239c0.86,0.2,1.64,0.29,2.46,0.29c1.11,0,2.34-0.159,4.13-0.54  c1.57-0.329,3.24-0.979,5-1.67c1.579-0.609,3.21-1.239,4.899-1.699c3.59-0.98,6.7-2.221,6.73-2.23c0.08-0.03,0.14-0.1,0.149-0.18  c0.05-0.28-0.02-0.7-0.14-1.16c0.16,0.36,0.3,0.72,0.41,1.02c0.029,0.091,0.12,0.15,0.22,0.16c0.3,0.34,0.64,0.62,1.03,0.851  c1.069,1.729,2.5,2.77,4.229,3.08c0.38,0.069,0.78,0.1,1.181,0.1c0.729,0,1.51-0.11,2.319-0.33c3.03-0.83,5.92-3,7.521-4.37  c0.27,0.65,0.68,0.78,0.979,0.78c1,0,2.12-1.58,2.24-1.771c0,0,0.01-0.01,0.01-0.02c0.521-0.91,0.641-1.57,0.37-2.021  c-0.2-0.34-0.6-0.52-1.18-0.52c-0.34,0-0.66,0.06-0.86,0.1c-0.13-0.16-0.3-0.26-0.5-0.3c0.16-0.22,0.32-0.45,0.48-0.7  c2.12-0.79,3.91-2.25,5.34-4.34c0.939-1.38,1.52-2.74,1.84-3.66c0.31,0.4,0.79,0.64,1.33,0.64c0.74,0,1.46-0.46,2.02-1.29  c0.471-0.7,0.58-1.29,0.32-1.78c-0.36-0.68-1.32-0.86-1.83-0.86H93.19c-0.16,0-0.2-0.06-0.221-0.07C92.9,44.23,92.89,44.09,92.9,44  c0.6,0.27,0.93,0.35,0.949,0.36H93.91z M85.64,53.42c1.23-2.58,1.21-4.41,1.2-5.66v-0.38c0-1.09,0.26-1.7,0.42-1.97  c0.09,0.1,0.221,0.24,0.33,0.36c0.46,0.51,1.101,1.21,1.771,1.43c0.229,0.07,0.489,0.12,0.76,0.14  C89.58,48.81,88.27,51.66,85.64,53.42z M82.08,58.47c0.05-0.029,0.08-0.05,0.1-0.06c0.03-0.021,0.061-0.03,0.101-0.03  c0.06,0,0.12,0.03,0.17,0.07c-0.01,0.02-0.01,0.05-0.021,0.08c-1.35,1.229-5.72,4.88-9.479,4.88c-0.32,0-0.63-0.03-0.931-0.08  c-0.8-0.15-1.52-0.5-2.149-1.061c0.17,0.011,0.34,0.011,0.51,0.011C74.77,62.28,80.02,59.61,82.08,58.47z M77.2,37.11  c1.34-1.7,2.06-1.84,2.25-1.84c0.04,0,0.069,0,0.08,0.01c0.52,0.14,1.12,1.47,1.43,3.15c-1.06,0.01-1.93,0.2-2.31,0.3  C78.5,38.49,78.14,38.03,77.2,37.11z M46.2,65.1c-0.17,0.101-0.37,0.21-0.62,0.311C45.75,65.31,45.96,65.21,46.2,65.1z" fill="#1B1B1C"/></svg>