<?xml version="1.0" ?><!DOCTYPE svg  PUBLIC '-//W3C//DTD SVG 1.1//EN'  'http://www.w3.org/Graphics/SVG/1.1/DTD/svg11.dtd'><svg enable-background="new 0 0 64 64" height="64px" id="Layer_1" version="1.1" viewBox="0 0 64 64" width="64px" xml:space="preserve" xmlns="http://www.w3.org/2000/svg" xmlns:xlink="http://www.w3.org/1999/xlink"><g><g><path d="M45.851,38.138c-3.765,0-6.816,3.052-6.816,6.815c0,3.766,3.052,6.817,6.816,6.817    c3.764,0,6.815-3.052,6.815-6.817C52.666,41.189,49.614,38.138,45.851,38.138z M45.851,48.488c-1.951,0-3.533-1.582-3.533-3.533    c0-1.953,1.582-3.534,3.533-3.534s3.534,1.581,3.534,3.534C49.385,46.906,47.802,48.488,45.851,48.488z" fill="#241F20"/></g><g><path d="M25.615-0.021c-3.885,0-7.034,3.148-7.034,7.034c0,3.886,3.148,7.033,7.034,7.033s7.034-3.146,7.034-7.033    C32.648,3.126,29.5-0.021,25.615-0.021z M25.614,11.284c-2.359,0-4.271-1.912-4.271-4.272c0-2.359,1.912-4.272,4.271-4.272    c2.36,0,4.272,1.913,4.272,4.272C29.886,9.372,27.974,11.284,25.614,11.284z" fill="#241F20"/></g><g><path d="M18.156,36.357c-2.855,0-5.167,2.312-5.167,5.167c0,2.854,2.312,5.167,5.167,5.167    s5.167-2.313,5.167-5.167C23.323,38.67,21.011,36.357,18.156,36.357z M18.156,43.355c-1.013,0-1.832-0.82-1.832-1.833    c0-1.011,0.819-1.831,1.832-1.831c1.012,0,1.832,0.82,1.832,1.831C19.988,42.535,19.168,43.355,18.156,43.355z" fill="#241F20"/></g><g><path d="M40.828,20.155c0,0,6.709-1.731,13.634,3.084c2.002,1.569,3.896,2.759,2.543,4.382    c-0.758,0.703-1.406,1.356-3.787-1.082c-2.326-1.569-6.002-3.919-12.39-2.976C38.339,24.051,36.499,24.7,32.981,28    c-3.517,3.3-8.766,5.626-14.339,5.139c-5.573-0.486-8.494-2.597-11.578-5.248c-0.649-0.866-0.649-1.786-0.271-2.327    s1.839-1.082,2.651-0.271c0.812,0.812,4.653,4.058,8.44,4.274c3.788,0.216,7.576,0.433,12.661-4.058    C35.634,21.021,38.177,20.696,40.828,20.155z" fill="#241F20"/></g><g><path d="M63.218,55.361v-38.52c0-1.194-0.825-1.342-1.156-1.353h-1.116c-1.089,0-1.184,1.149-1.187,1.525    c0,0.037,0,0.068,0,0.105c0,0.003,0,0.02,0,0.02c0.003,7.45,0.02,37.684-0.004,38.276c-0.027,0.677-0.162,2.408-1.812,3.896    c-1.784,1.435-3.57,1.245-3.57,1.245s-44.529,0-45.584-0.055c-0.838-0.135-2.299-0.433-3.544-2.083c-1.244-1.65-1-3.814-1-3.814    V17.166c0-1.731-1.488-1.677-1.488-1.677H2.079c-1.183,0-1.292,1.214-1.298,1.603c0,7.147,0,35.856,0,38.27    c0,2.76,1.001,4.95,3.416,6.889c2.414,1.938,5.241,1.768,5.241,1.768s43.528,0,45.422-0.005s4.382-0.86,6.435-3.211    C63.346,58.452,63.218,55.361,63.218,55.361z" fill="#241F20"/></g></g></svg>