<?xml version="1.0" ?><svg viewBox="0 0 128 128" xmlns="http://www.w3.org/2000/svg"><defs><style>.cls-1{fill:#231f20;}</style></defs><g id="Water"><path class="cls-1" d="M79.94,39.58,64.85,15.47a1,1,0,0,0-1.7,0L48.06,39.58A18.58,18.58,0,0,0,62.78,68c.4,0,.81,0,1.22,0s.82,0,1.22,0A18.58,18.58,0,0,0,79.94,39.58ZM65.12,66a20.74,20.74,0,0,1-2.23,0A16.57,16.57,0,0,1,49.76,40.64L64,17.88,78.24,40.64A16.57,16.57,0,0,1,65.12,66Z"/><path class="cls-1" d="M74.64,44.14c-3.72.11-7.23,7.36-8.56,10.47C63.35,61,59.78,62,59.76,62A1,1,0,1,0,60.24,64l8-2a12.9,12.9,0,0,0,9.21-8.68l.1-.28c.51-1.47,1.46-4.22.34-6.46C76.88,44.51,75.56,44.12,74.64,44.14Zm1,8.22-.1.29A11,11,0,0,1,67.76,60l-3.13.78a20.12,20.12,0,0,0,3.29-5.42c2.28-5.31,5.13-9.2,6.78-9.25h0c.48,0,.94.44,1.38,1.31C76.85,48.93,76.07,51.16,75.66,52.36Z"/><path class="cls-1" d="M33.78,70.12a1,1,0,0,0-1.71,0L20.25,89.68a15.49,15.49,0,0,0-.42,15.39A14.58,14.58,0,0,0,32,113c.32,0,.64,0,1,0s.65,0,1,0A14.59,14.59,0,0,0,46,105.07a15.51,15.51,0,0,0-.42-15.39Zm10.48,34A12.62,12.62,0,0,1,33.79,111a16.45,16.45,0,0,1-1.72,0,12.6,12.6,0,0,1-10.47-6.84A13.53,13.53,0,0,1,22,90.71l11-18.13,11,18.13A13.55,13.55,0,0,1,44.26,104.14Z"/><path class="cls-1" d="M43.38,95.44c-.77-1.57-1.79-1.88-2.52-1.85-2.74.08-5.21,5.24-6.15,7.46-1.8,4.27-4.11,5-4.12,5a1,1,0,0,0,.25,2l.25,0h0l5.47-1.4a9.19,9.19,0,0,0,6.53-6.23l.06-.19c.37-1.07,1.05-3.06.23-4.72Zm-2.12,4.07-.07.21a7.15,7.15,0,0,1-5.12,4.93l-1.26.32a15.28,15.28,0,0,0,1.74-3.14c1.81-4.27,3.64-6.22,4.37-6.24h0c.28,0,.58.56.66.73C42,97.24,41.53,98.72,41.26,99.51Z"/><path class="cls-1" d="M107.75,89.68,95.93,70.12a1,1,0,0,0-1.71,0L82.39,89.68A15.54,15.54,0,0,0,82,105.07,14.59,14.59,0,0,0,94.1,113c.32,0,.65,0,1,0s.65,0,1,0a14.58,14.58,0,0,0,12.13-7.9A15.49,15.49,0,0,0,107.75,89.68Zm-1.35,14.46A12.6,12.6,0,0,1,95.93,111a16.45,16.45,0,0,1-1.72,0,12.62,12.62,0,0,1-10.47-6.84,13.55,13.55,0,0,1,.36-13.43l11-18.13,11,18.13A13.53,13.53,0,0,1,106.4,104.14Z"/><path class="cls-1" d="M103,93.21c-2.73.09-5.21,5.18-6.14,7.36-1.8,4.19-4.11,4.9-4.12,4.9a1,1,0,0,0-.73,1.21,1,1,0,0,0,1,.76l.25,0L98.7,106a9.12,9.12,0,0,0,6.53-6.14l.07-.19c.36-1.06,1-3,.22-4.67A2.8,2.8,0,0,0,103,93.21Zm.41,5.84-.07.21a7.09,7.09,0,0,1-5.12,4.84l-1.24.31a15.12,15.12,0,0,0,1.72-3c1.8-4.2,3.63-6.12,4.36-6.15h0c.27,0,.55.5.66.72C104.18,96.83,103.67,98.28,103.41,99.05Z"/></g></svg>