<?xml version="1.0" ?><svg viewBox="0 0 64 64" xmlns="http://www.w3.org/2000/svg"><defs><style>.cls-1{fill:none;stroke:#000;stroke-linejoin:round;stroke-width:2px;}</style></defs><title/><g data-name="Layer 10" id="Layer_10"><rect class="cls-1" height="6" width="36" x="6" y="56"/><path class="cls-1" d="M8,56V5a3,3,0,0,1,3-3H37a3,3,0,0,1,3,3V56"/><line class="cls-1" x1="8" x2="40" y1="8" y2="8"/><rect class="cls-1" height="16" width="24" x="12" y="12"/><polyline class="cls-1" points="40 52 44 52 44 44 40 44"/><path class="cls-1" d="M44,46h2a2,2,0,0,0,2-2V12h8v6H52V44a6,6,0,0,1-6,6H44"/><path class="cls-1" d="M56,18v2a4,4,0,0,1-4,4h0"/><polyline class="cls-1" points="48 12 48 9 55 2 58 5 53 10 53 12"/><line class="cls-1" x1="48" x2="52" y1="26" y2="26"/><rect class="cls-1" height="12" width="10" x="12" y="32"/><rect class="cls-1" height="12" width="10" x="26" y="32"/><polygon class="cls-1" points="15 40 17 36 19 40 15 40"/><polygon class="cls-1" points="29 36 31 40 33 36 29 36"/><line class="cls-1" x1="8" x2="40" y1="50" y2="50"/><path class="cls-1" d="M23.414,25h1.172A3.415,3.415,0,0,0,27,24h0a3.415,3.415,0,0,0,1-2.414h0a4.514,4.514,0,0,0-.991-2.824L24,15l-3.009,3.762A4.514,4.514,0,0,0,20,21.586h0A3.415,3.415,0,0,0,21,24h0A3.415,3.415,0,0,0,23.414,25Z"/></g></svg>