<?xml version="1.0" ?><svg xmlns="http://www.w3.org/2000/svg" xmlns:xlink="http://www.w3.org/1999/xlink" version="1.1" viewBox="0 0 512 512" style="enable-background:new 0 0 512 512;" xml:space="preserve"><g id="_x33_7_x2C__Generator_x2C__Electric_Generator_x2C__Thunderbolt_x2C__Electronics_x2C__Electronic_x2C__Backup_x2C__Electrical_x2C__Electricity"><g><path d="M491,72.72V31c0-5.522-4.477-10-10-10c-5.523,0-10,4.478-10,10v40h-33.069l-7.698-20.532    C425.864,38.823,414.575,31,402.14,31h-83.932l-0.883-2.649C311.872,11.991,296.622,1,279.377,1h-46.755    c-17.244,0-32.494,10.991-37.947,27.351L193.792,31H109.86c-12.435,0-23.724,7.823-28.094,19.47L74.069,71H41V31    c0-5.522-4.477-10-10-10c-5.523,0-10,4.478-10,10v41.72C9.361,76.848,1,87.964,1,101v20c0,13.036,8.361,24.152,20,28.28    c0,9.506,0,232.515,0,242.797C8.64,404.707,1,421.975,1,441c0,38.598,31.402,70,70,70c31.649,0,58.445-21.119,67.073-50H371v40    c0,5.522,4.477,10,10,10h50c5.523,0,10-4.478,10-10v-40h10c22.056,0,40-17.944,40-40V149.28c11.639-4.128,20-15.243,20-28.28v-20    C511,87.964,502.639,76.848,491,72.72z M100.493,57.493C101.95,53.609,105.714,51,109.86,51H201    c10.287,0,10.464-12.051,12.649-16.325C216.375,26.495,224,21,232.623,21h46.755c8.622,0,16.247,5.495,18.974,13.675    C300.582,39.04,300.704,51,311,51h91.14c4.146,0,7.91,2.609,9.366,6.491L416.571,71H95.429L100.493,57.493z M471,371H71    c-10.731,0-20.902,2.434-30,6.768V341h80c22.056,0,40-17.944,40-40v-80c0-22.056-17.944-40-40-40H41v-30h430V371z M41,201h80    c11.028,0,20,8.972,20,20v80c0,11.028-8.972,20-20,20H41V201z M71,491c-27.57,0-50-22.43-50-50s22.43-50,50-50s50,22.43,50,50    S98.57,491,71,491z M451,441c-18.015,0-292.985,0-310,0c0-19.572-8.084-37.284-21.077-50H471v30C471,432.028,462.028,441,451,441z     M491,121c0,5.514-4.486,10-10,10H31c-5.514,0-10-4.486-10-10v-20c0-5.514,4.486-10,10-10c19.468,0,430.06,0,450,0    c5.514,0,10,4.486,10,10V121z"/><path d="M71,411c-16.542,0-30,13.458-30,30s13.458,30,30,30s30-13.458,30-30S87.542,411,71,411z"/><path d="M191,281h36.743l-16.358,57.253c-1.276,4.467,0.692,9.224,4.75,11.484c4.046,2.252,9.13,1.438,12.264-2.011l100-110    C334.234,231.309,329.655,221,321,221h-48.107l17.122-35.673C293.198,178.696,288.355,171,281,171h-50    c-3.952,0-7.533,2.327-9.138,5.939l-40,90C178.926,273.546,183.771,281,191,281z"/><path d="M401,251c22.056,0,40-17.944,40-40s-17.944-40-40-40c-22.056,0-40,17.944-40,40S378.944,251,401,251z M401,191    c11.028,0,20,8.972,20,20c0,7.383-4.032,13.829-10,17.294V221c0-5.523-4.477-10-10-10c-5.523,0-10,4.477-10,10v7.294    c-5.968-3.465-10-9.91-10-17.294C381,199.972,389.972,191,401,191z"/><path d="M401,351c22.056,0,40-17.944,40-40s-17.944-40-40-40c-22.056,0-40,17.944-40,40S378.944,351,401,351z M401,291    c11.028,0,20,8.972,20,20c0,7.384-4.032,13.829-10,17.294V321c0-5.522-4.477-10-10-10c-5.523,0-10,4.478-10,10v7.294    c-5.968-3.465-10-9.91-10-17.294C381,299.972,389.972,291,401,291z"/><path d="M121,251c0-16.542-13.458-30-30-30s-30,13.458-30,30c0,13.036,8.361,24.152,20,28.28V291c0,5.522,4.477,10,10,10    c5.523,0,10-4.478,10-10v-11.72C112.639,275.152,121,264.036,121,251z M91,261c-5.514,0-10-4.486-10-10s4.486-10,10-10    c5.514,0,10,4.486,10,10S96.514,261,91,261z"/></g></g><g id="Layer_1"/></svg>