<?xml version="1.0" ?><!DOCTYPE svg  PUBLIC '-//W3C//DTD SVG 1.1//EN'  'http://www.w3.org/Graphics/SVG/1.1/DTD/svg11.dtd'><svg height="8.4666mm" style="shape-rendering:geometricPrecision; text-rendering:geometricPrecision; image-rendering:optimizeQuality; fill-rule:evenodd; clip-rule:evenodd" version="1.1" viewBox="0 0 846.66 846.66" width="8.4666mm" xml:space="preserve" xmlns="http://www.w3.org/2000/svg" xmlns:xlink="http://www.w3.org/1999/xlink"><defs><style type="text/css">
   <![CDATA[
    .fil0 {fill:black;fill-rule:nonzero}
   ]]>
  </style></defs><g id="Layer_x0020_1"><path class="fil0" d="M27.51 561.65l341.03 0 0 -59.69c-79.6,-16.22 -170.34,-15.41 -250.94,-11.88 -15.64,1.52 -27.56,-14.58 -20.95,-29.25 40.47,-89.59 -8.57,-237.37 -42.29,-323.17 -5.62,-14.55 6.26,-30.28 22.13,-28.15 71.94,9.9 143.16,30.51 205.47,68.51 -4.66,-13.11 -9.7,-26.56 -15.12,-40.36 -5.61,-14.55 6.27,-30.28 22.14,-28.15 233.19,32.09 369.87,164.64 401.04,399.08 2.21,16.83 -16.14,29.39 -31.12,20.5 -10.17,-6.06 -22.24,-11.44 -36.22,-16.16l0 48.72 196.49 0c19.45,0 28.05,24.23 13.55,36.65l-133.74 132.95c-4.05,4.03 -9.35,6.04 -14.65,6.04l-656.82 0.06c-11.5,0 -20.83,-9.33 -20.83,-20.83l0 -134.04c0,-11.5 9.33,-20.83 20.83,-20.83zm382.69 0l170.82 0 0 -59.69c-34.76,-7.08 -70.8,-10.47 -106.19,-12.24 1,6.27 1.87,12.57 2.71,18.87 2.2,16.83 -16.15,29.39 -31.13,20.5 -10.17,-6.06 -22.24,-11.44 -36.21,-16.16l0 48.72zm-97.33 -109.92c23.03,-62.41 7.45,-145.37 -9.91,-207.74 -56.43,-47.22 -125.45,-73.72 -197.05,-87.55 30.85,85.06 63.23,200.89 39.39,291.05 64.33,-1.94 120.2,-0.52 167.57,4.24zm44.91 -4.24c87.03,-2.62 201.99,-1.87 284.89,28.52 -35.45,-180.77 -144.2,-284.78 -324.27,-319.57 30.91,85.23 63.25,200.82 39.38,291.05zm410.97 155.82c-240.13,0 -480.27,0 -720.41,0l0 92.38 627.48 0 92.93 -92.38z"/></g></svg>