<svg width="197" height="25" viewBox="0 0 197 25" fill="none" xmlns="http://www.w3.org/2000/svg">
<path d="M5.26654 24.2276C3.52122 24.2276 2.21083 23.9643 1.47285 23.4983C1.0716 23.235 0.729269 22.8664 0.911658 21.8632L2.94599 8.18535C2.98881 7.77637 3.13748 7.38339 3.37906 7.04062C3.62064 6.69784 3.94783 6.41565 4.33215 6.21858C5.28338 5.692 6.68356 5.42871 8.48781 5.42871H21.9706L21.5777 8.14059H8.51306L7.71336 13.1668H18.0366L17.5932 15.8155H7.2644L6.38051 21.3445H19.4396L19.1365 24.2276H5.26654Z" fill="#4F5D6E"/>
<path d="M40.242 24.2276L40.893 19.5963H31.8774L31.2404 24.2276H25.6958L28.0977 8.18535C28.14 7.77656 28.2882 7.38366 28.5293 7.04087C28.7704 6.69808 29.0971 6.41579 29.4811 6.21858C30.4351 5.692 31.8353 5.42871 33.6395 5.42871H48.601L48.211 8.16692H33.6592L32.3235 17.0003H41.342L42.1838 11.2869H47.7143L45.7726 24.2276H40.242Z" fill="#4F5D6E"/>
<path d="M51.0713 24.2278L51.3715 21.35H64.4895L65.2247 17.0426L63.99 16.7951C59.7249 15.9421 56.6047 15.1153 54.7303 14.336C54.0254 14.0661 53.3483 13.7365 52.7072 13.3513L53.4816 8.22769C53.664 7.02972 54.4244 5.43945 58.8972 5.43945H72.5511L72.1582 8.15133H59.0852L58.4145 12.2218L59.6127 12.5061C62.0455 13.0748 64.0826 13.6014 65.6652 14.0701C67.2478 14.5387 68.4712 14.9468 69.3607 15.3102C69.9232 15.5064 70.4554 15.772 70.9432 16.1L70.1015 21.5475C69.9219 22.6954 69.1671 24.2199 64.7252 24.2199L51.0713 24.2278Z" fill="#4F5D6E"/>
<path d="M82.2319 24.2385L83.6405 14.7759L79.2099 6.77718H77.2036L77.4056 5.4502H83.7191L87.0077 11.5269L92.1483 5.4502H96.9605L89.216 14.4363L87.7653 24.2385H82.2319Z" fill="#4F5D6E"/>
<path d="M100.924 24.2278L102.866 11.2713H108.405L107.981 14.049H116.994L117.915 8.15133H103.354L103.744 5.43945H119.096C121.697 5.43945 122.744 5.96603 123.136 6.39782C123.33 6.60582 123.574 6.98233 123.454 7.84065L122.861 11.7558C122.752 12.4824 122.581 12.7168 122.542 12.7563C122.216 13.1089 121.853 13.4299 121.458 13.7146L120.336 14.5545L121.282 15.5603C121.567 15.8504 121.808 16.1755 122 16.5266C122 16.5503 122.118 16.7899 122 17.4612L121.405 21.4843C121.212 22.6533 120.423 24.2278 115.863 24.2278H100.924ZM106.772 21.35H115.782L116.542 16.6687H107.527L106.772 21.35Z" fill="#4F5D6E"/>
<path d="M130.957 23.8858C129.214 23.8858 127.901 23.6225 127.163 23.1565C126.765 22.8932 126.422 22.5272 126.602 21.5214L128.636 7.84355C128.679 7.43457 128.828 7.0416 129.069 6.69882C129.311 6.35605 129.638 6.07385 130.022 5.87678C130.973 5.3502 132.374 5.08691 134.178 5.08691H144.411C147.012 5.08691 148.059 5.61349 148.452 6.04528C148.648 6.25328 148.89 6.62979 148.769 7.48548L146.74 21.1502C146.547 22.3218 145.758 23.8963 141.198 23.8963L130.957 23.8858ZM132.079 21.008H141.092L143.205 7.82512H134.192L132.079 21.008Z" fill="#4F5D6E"/>
<path d="M181.44 24.2385L183.876 8.16208H177.363L177.756 5.4502H196.315L195.922 8.16208H189.409L186.974 24.2385H181.44Z" fill="#4F5D6E"/>
<path d="M152.813 21.7002V24.0619H175.432L177.046 21.7002H152.813Z" fill="#4F5D6E"/>
<path d="M150.406 19.8496H160.838V17.6722H156.147L163.717 10.1V19.8785H168.866V0.521484L150.406 19.8496Z" fill="#4F5D6E"/>
</svg>
