<?xml version="1.0" ?><svg viewBox="0 0 24 24" xmlns="http://www.w3.org/2000/svg"><title/><g data-name="Layer 2" id="Layer_2"><path d="M12,16a3,3,0,1,0-3-3A3,3,0,0,0,12,16Zm0-4a1,1,0,1,1-1,1A1,1,0,0,1,12,12Z"/><path d="M10.51,9.29a4,4,0,0,1,3,0l.93.37L16.64,4.1l-.92-.37a10,10,0,0,0-7.43,0l-.92.38L9.58,9.66Zm3.51-4-.75,1.88a6,6,0,0,0-2.54,0L10,5.26A8,8,0,0,1,14,5.26Z"/><path d="M3.34,18a9.79,9.79,0,0,0,2.49,2.86l.78.61,3.71-4.7-.78-.62A4,4,0,0,1,8,13.56l-.15-1L2,13.43l.14,1A9.79,9.79,0,0,0,3.34,18Zm2.95-3.17A5.9,5.9,0,0,0,6.8,16a6,6,0,0,0,.75,1L6.31,18.62a8,8,0,0,1-2-3.5Z"/><path d="M16.1,12.58l-.15,1a4,4,0,0,1-1.49,2.58l-.78.62,3.71,4.7.78-.61a9.91,9.91,0,0,0,3.72-6.44l.14-1ZM18.93,17a7.88,7.88,0,0,1-1.23,1.62L16.44,17a6,6,0,0,0,.75-1,5.9,5.9,0,0,0,.52-1.17l2,.29A7.85,7.85,0,0,1,18.93,17Z"/></g></svg>