<?xml version="1.0" ?><svg fill="none" height="24" viewBox="0 0 24 24" width="24" xmlns="http://www.w3.org/2000/svg"><path d="M19 16L21 12L17 11.1111M12 10V15M12 10L7 11.1111M12 10L17 11.1111M5 16L3 12L7 11.1111M7 11.1111L6 6H10M17 11.1111L18 6H14M14 6V3H10V6M14 6H10M3 20L4.24491 19.502C5.0306 19.1878 5.92065 19.2804 6.62474 19.7498V19.7498C7.6978 20.4652 9.13488 20.2744 9.98413 19.3039L10.0197 19.2632C11.0681 18.0651 12.9319 18.0651 13.9803 19.2632L14.0159 19.3039C14.8651 20.2744 16.3022 20.4652 17.3753 19.7498V19.7498C18.0794 19.2804 18.9694 19.1878 19.7551 19.502L21 20" stroke="black" stroke-linecap="round" stroke-linejoin="round" stroke-width="2"/></svg>