<?xml version="1.0" ?><svg data-name="Layer 1" id="Layer_1" viewBox="0 0 512 512" xmlns="http://www.w3.org/2000/svg"><path d="M462.92,429.25c-.41.34-40.7,34-103.6,34-51.38,0-80.75-21.25-94.86-31.46l-7.62-5.41c-14.59-10.38-48.74-34.7-104.16-34.7-68.65,0-111.51,36-113.3,37.57a7.47,7.47,0,0,0,9.7,11.36c.41-.35,40.7-34,103.6-34,50.64,0,80.94,21.57,95.5,31.93l7.53,5.35c15.38,11.13,47.39,34.29,103.61,34.29,68.65,0,111.51-36.05,113.3-37.58a7.47,7.47,0,0,0-9.7-11.35Z"/><path d="M462.92,357.68c-.41.34-40.7,34-103.6,34-51.37,0-80.74-21.25-94.85-31.45l-7.61-5.4c-14.59-10.39-48.74-34.72-104.18-34.72-68.65,0-111.51,36.05-113.3,37.58A7.47,7.47,0,0,0,49.08,369c.41-.34,40.7-34,103.6-34,50.66,0,81,21.59,95.51,31.95l7.53,5.34c15.39,11.13,47.4,34.28,103.6,34.28,68.65,0,111.51-36,113.3-37.57a7.47,7.47,0,0,0-9.7-11.36Z"/><path d="M462.92,286.11c-.41.34-40.7,34-103.6,34-51.36,0-80.73-21.24-94.85-31.45l-7.61-5.4c-14.59-10.39-48.74-34.72-104.18-34.72-68.65,0-111.51,36-113.3,37.58a7.47,7.47,0,0,0,9.7,11.35c.41-.34,40.7-34,103.6-34,50.66,0,81,21.58,95.51,31.95l7.53,5.34c15.39,11.13,47.4,34.28,103.6,34.28C428,335,470.83,299,472.62,297.46a7.47,7.47,0,0,0-9.7-11.35Z"/><path d="M462.92,214.54c-.41.34-40.7,34-103.6,34-51.38,0-80.75-21.25-94.86-31.46l-7.6-5.39C242.27,201.3,208.12,177,152.68,177,84,177,41.17,213,39.38,214.54a7.47,7.47,0,0,0,9.7,11.36c.41-.35,40.7-34,103.6-34,50.66,0,81,21.58,95.51,31.95l7.52,5.33c15.38,11.13,47.39,34.29,103.61,34.29,68.65,0,111.51-36.05,113.3-37.58a7.47,7.47,0,0,0-9.7-11.35Z"/><path d="M462.92,143c-.41.35-40.7,34-103.6,34-51.38,0-80.75-21.24-94.86-31.45l-7.6-5.4c-14.59-10.39-48.74-34.72-104.18-34.72C84,105.39,41.17,141.44,39.38,143a7.47,7.47,0,0,0,9.7,11.35c.41-.34,40.7-34,103.6-34,50.66,0,81,21.59,95.51,32l7.52,5.33c15.38,11.12,47.39,34.29,103.61,34.29,68.65,0,111.51-36.05,113.3-37.58a7.47,7.47,0,0,0-9.7-11.36Z"/><path d="M49.08,82.75c.41-.34,40.7-34,103.6-34,50.64,0,80.94,21.58,95.5,31.94L255.71,86c15.38,11.13,47.39,34.29,103.61,34.29,68.65,0,111.51-36,113.3-37.57a7.47,7.47,0,0,0-9.7-11.36c-.41.35-40.7,34-103.6,34-51.38,0-80.75-21.24-94.86-31.45l-7.62-5.41C242.25,58.14,208.1,33.82,152.68,33.82,84,33.82,41.17,69.87,39.38,71.4a7.47,7.47,0,0,0,9.7,11.35Z"/></svg>