<?xml version="1.0" encoding="utf-8"?>
<!-- Generator: Adobe Illustrator 27.7.0, SVG Export Plug-In . SVG Version: 6.00 Build 0)  -->
<svg version="1.1" id="Layer_1" xmlns="http://www.w3.org/2000/svg" xmlns:xlink="http://www.w3.org/1999/xlink" x="0px" y="0px"
	 viewBox="0 0 512 512" style="enable-background:new 0 0 512 512;" xml:space="preserve">
<g>
	<path d="M76.83,89.6c-0.02,17.51,8.73,32.49,19.7,43.15c16.73,16.2,39.52,26.77,66.68,34.56c27.17,7.63,58.83,11.87,92.82,11.89
		c45.34-0.06,86.44-7.45,118.46-20.71c16.01-6.72,29.91-14.85,41.04-25.74c10.97-10.66,19.72-25.64,19.7-43.15
		c0.02-17.51-8.73-32.49-19.7-43.15c-16.73-16.2-39.52-26.77-66.68-34.56C321.68,4.26,290.01,0.01,256.03,0
		c-45.34,0.06-86.44,7.45-118.46,20.71c-16.02,6.72-29.91,14.85-41.04,25.74C85.56,57.11,76.81,72.09,76.83,89.6
		c0,14.14,11.46,25.6,25.6,25.6s25.6-11.46,25.6-25.6c0.02-0.17-0.14-2.02,4.44-6.67c6.59-6.77,22.75-15.74,44.62-21.75
		c21.86-6.17,49.3-9.99,78.94-9.97c39.49-0.06,75.19,6.87,98.77,16.78c11.78,4.86,20.38,10.52,24.8,14.95
		c4.57,4.65,4.42,6.51,4.44,6.67c-0.02,0.17,0.14,2.02-4.44,6.67c-6.59,6.77-22.75,15.74-44.62,21.75
		c-21.86,6.17-49.3,9.99-78.94,9.97c-39.49,0.06-75.19-6.87-98.77-16.78c-11.78-4.86-20.38-10.52-24.8-14.95
		c-4.57-4.65-4.42-6.51-4.44-6.67c0-14.14-11.46-25.6-25.6-25.6C88.29,64,76.83,75.46,76.83,89.6L76.83,89.6z"/>
	<path d="M384.03,89.6v118.43c0,8.73,4.39,16.78,11.73,21.51c7.34,4.73,16.48,5.41,24.44,1.81l4.36-0.96
		c4.06,0.03,7.94,2.3,9.7,6.25l0.95,4.38c0,2.41-0.8,4.76-2.37,6.7l19.89,16.12l-19.05-17.11l-2.02,2.25l-40.12,40.12
		c-4.77,4.77-7.5,11.36-7.5,18.1v102.4c-0.04,3.41-1.12,7.26-5.62,12.88c-6.61,8.29-21.34,18.34-41.76,25.54
		c-20.37,7.32-46.13,12.14-74.17,12.78l0.6,25.59v-25.6h-7.04c-38.93,0.07-74.01-8.12-97.17-19.79
		c-11.59-5.76-20.06-12.35-24.82-18.05c-4.83-5.84-5.97-9.86-6.02-13.36l0-51.2c0-6.74-2.73-13.34-7.5-18.1l-40.6-40.6l-0.01-0.01
		c-2.12-2.14-3.08-4.7-3.11-7.49c0.03-2.8,0.99-5.36,3.1-7.49c2.04-2.04,4.73-3.1,7.51-3.11l4.39,0.96
		c7.94,3.62,17.13,2.96,24.47-1.76c7.34-4.72,11.75-12.8,11.75-21.53V89.6c0-14.14-11.46-25.6-25.6-25.6
		c-14.14,0-25.6,11.46-25.6,25.6l0,169.65h25.6l10.62-23.29c-8.2-3.74-16.98-5.58-25.64-5.57c-16.05-0.01-31.9,6.28-43.74,18.13
		c-12,12-18.1,27.96-18.07,43.67c-0.03,15.75,6.1,31.72,18.13,43.72l-0.01-0.01l33.1,33.1l0,40.6
		c-0.05,17.71,7.41,33.89,18.12,46.43c16.23,18.95,39.5,32.1,67,41.51c27.55,9.29,59.66,14.44,94.07,14.46h7.04l0.6-0.01
		c44.15-1.11,84.07-10.46,115.1-26.56c15.5-8.12,28.92-17.99,39.21-30.47c10.23-12.35,17.29-28.15,17.24-45.36v-91.8l33.1-33.1
		l0.94-1l2.48-2.76l0.84-0.99c9.09-11.21,13.8-25.02,13.8-38.94c0-8.64-1.82-17.35-5.51-25.5c-10.36-22.8-32.83-36.36-56.34-36.33
		c-8.54-0.01-17.28,1.79-25.49,5.52l10.56,23.32h25.6V89.6c0-14.14-11.46-25.6-25.6-25.6C395.49,64,384.03,75.46,384.03,89.6
		L384.03,89.6z"/>
	<path d="M179.23,268.8v38.4c0,14.14,11.46,25.6,25.6,25.6c14.14,0,25.6-11.46,25.6-25.6v-38.4c0-14.14-11.46-25.6-25.6-25.6
		C190.69,243.2,179.23,254.66,179.23,268.8"/>
	<path d="M281.63,358.4V384c0,14.14,11.46,25.6,25.6,25.6c14.14,0,25.6-11.46,25.6-25.6v-25.6c0-14.14-11.46-25.6-25.6-25.6
		C293.09,332.8,281.63,344.26,281.63,358.4"/>
</g>
</svg>
