<?xml version="1.0" ?><!DOCTYPE svg  PUBLIC '-//W3C//DTD SVG 1.1//EN'  'http://www.w3.org/Graphics/SVG/1.1/DTD/svg11.dtd'><svg enable-background="new 0 0 64 64" height="64px" id="Layer_1" version="1.1" viewBox="0 0 64 64" width="64px" xml:space="preserve" xmlns="http://www.w3.org/2000/svg" xmlns:xlink="http://www.w3.org/1999/xlink"><path d="M63.643,26.718l-0.027-0.06l0.016-0.012l-0.198-0.378l0,0L52.854,6.126c-0.288-0.526-1.293-2.07-3.228-2.07  H14.189c-2.157,0-3.237,2.125-3.261,2.175L0.539,26.013c0,0-0.003,0.009-0.005,0.009l-0.073,0.141  c-0.174,0.345-0.561,1.281-0.177,2.205c2.64,4.285,7.346,7.162,12.747,7.162c5.282,0,9.888-2.758,12.558-6.882  c0.408-0.939-0.16-2.112-0.16-2.112l-9.83-18.719l0,0l-0.096-0.182c-0.132-0.304-0.25-0.885,0.804-0.885h12.888  c0.366,0.012,1.385,0.193,1.385,1.899v44.344c-0.024,0.44-0.19,1.329-1.104,1.893l-6.452,3.99c0,0-1.692,1.068,0,1.068h18.308  c1.247,0,0-0.867,0-0.867l-6.646-4.068c-0.003,0-0.003-0.003-0.006-0.003c-1.092-0.669-1.296-1.512-1.326-1.938V8.459  c0-1.542,1.105-1.701,1.494-1.71h12.6c0.332,0.006,1.337,0.115,0.702,1.326l-9.867,18.784c0,0-0.307,0.741,0.039,1.551  c2.644,4.26,7.331,7.12,12.715,7.12c5.395,0,10.099-2.865,12.738-7.141C64.038,27.699,63.741,26.934,63.643,26.718z M20.82,30.582  c-1.663,1.188-4.597,2.937-7.618,3.054c-0.059,0.006-0.114,0.021-0.171,0.027c-0.009-0.003-0.012-0.009-0.018-0.016  c-0.132,0.01-0.261,0.03-0.393,0.03c-0.068,0-0.132-0.015-0.201-0.015c-3.125-0.033-6.039-1.998-7.554-3.219h0.001  c0,0-1.206-0.954,0-0.954h1.538l13.224,0.003h1.166C20.793,29.493,21.989,29.787,20.82,30.582z M22.236,26.127l0.001,0.003  l0.135,0.258c0.21,0.432,0.525,1.257-0.135,1.257L3.503,27.642l0,0c-0.621,0-0.498-0.57-0.3-1.029L3.5,26.049l0.003-0.003l0,0  L12.434,9.04c0,0,0.456-0.705,0.826,0h0.001L22.236,26.127z M42.372,27.642c-1.265,0-1.035-0.864-0.83-1.308l0.132-0.252  c0-0.003,0.005-0.012,0.005-0.012L50.41,9.444c0.011-0.018,0.605-1.146,1.208,0.003l8.706,16.575  c0.181,0.357,0.732,1.623-0.561,1.623l-17.388-0.003C42.373,27.642,42.373,27.642,42.372,27.642z M43.371,30.591  c-0.116-0.099-0.21-0.186-0.311-0.276c-0.659-0.753,0.529-0.824,0.529-0.824h1.467l12.988,0.003h0.494c0,0,1.132,0.048,0.436,0.783  c-0.039,0.032-0.075,0.065-0.117,0.102c-0.065,0.062-0.141,0.126-0.23,0.198c-0.046,0.039-0.097,0.081-0.147,0.12  c-0.084,0.065-0.156,0.123-0.216,0.174c-1.572,1.242-4.215,2.865-7.228,2.808C47.695,33.795,44.869,31.869,43.371,30.591z" fill="#241F20"/></svg>