<?xml version="1.0" encoding="utf-8"?>
<!-- Generator: Adobe Illustrator 27.7.0, SVG Export Plug-In . SVG Version: 6.00 Build 0)  -->
<svg version="1.1" id="Layer_1" xmlns="http://www.w3.org/2000/svg" xmlns:xlink="http://www.w3.org/1999/xlink" x="0px" y="0px"
	 viewBox="0 0 512 512" style="enable-background:new 0 0 512 512;" xml:space="preserve">
<g>
	<path d="M76.79,358.4l-19.08,17.07l37.5,41.93l0.34,0.37c4.63,5,6.83,11.11,6.86,17.42c-0.03,6.95-2.69,13.65-8.16,18.76
		c-5,4.63-11.11,6.83-17.42,6.86c-6.95-0.03-13.65-2.69-18.75-8.16c-4.58-4.94-6.84-11.11-6.86-17.44
		c0.02-5.76,1.88-11.39,5.75-16.16l-19.85-16.17l19.1,17.04l39.68-44.47L76.79,358.4l-19.08,17.07L76.79,358.4l-19.1-17.04
		l-39.68,44.47l-0.75,0.88C5.76,400.81,0,418.1,0.01,435.2c-0.02,18.78,6.93,37.66,20.57,52.31c15.07,16.21,35.75,24.52,56.24,24.49
		c18.65,0.03,37.57-6.85,52.29-20.57c16.21-15.07,24.52-35.75,24.49-56.24c0.03-18.65-6.85-37.57-20.57-52.29l-18.74,17.44
		l19.08-17.07l-37.5-41.93c-4.88-5.45-11.78-8.54-19.1-8.53s-14.21,3.1-19.09,8.56L76.79,358.4z"/>
	<path d="M300.45,198.07l18.11,18.1c22.6-22.63,40.57-47.03,53.2-71.27c12.55-24.29,20.07-48.34,20.17-71.7
		c0.11-18.92-5.62-38.65-20.09-53.09l-0.01-0.01C357.39,5.62,337.66-0.1,318.74,0c-23.36,0.1-47.42,7.63-71.7,20.19
		C222.8,32.82,198.41,50.8,175.78,73.4l0,0c-22.62,22.62-40.59,47.02-53.22,71.26c-12.55,24.29-20.07,48.34-20.18,71.7
		c-0.11,18.92,5.62,38.64,20.1,53.08c14.45,14.49,34.18,20.21,53.11,20.11c23.36-0.1,47.42-7.63,71.71-20.18
		c24.24-12.63,48.63-30.6,71.26-53.2l0,0L300.45,198.07l-18.1-18.1c-19.12,19.14-39.68,34.11-58.69,43.99
		c-18.96,9.95-36.46,14.5-48.07,14.4c-9.74-0.11-14.24-2.48-16.9-5.11c-2.62-2.66-5-7.15-5.1-16.88c-0.1-11.61,4.44-29.1,14.4-48.07
		c9.88-19.01,24.85-39.56,44-58.69l0,0c19.13-19.15,39.68-34.12,58.69-44c18.96-9.96,36.46-14.51,48.06-14.4
		c9.73,0.11,14.21,2.48,16.88,5.11l-0.01-0.01c2.63,2.67,5,7.17,5.11,16.9c0.1,11.61-4.44,29.11-14.39,48.07
		c-9.87,19.01-24.84,39.57-43.99,58.7l0,0L300.45,198.07z"/>
	<path d="M122.49,269.45c10.8,10.8,22.92,20.18,36.08,27.89l-0.01-0.01l176.51,103.6l1.21,0.67c10.06,5.24,21.33,8.04,32.45,8
		c17.37-0.04,33.33-6.24,48.09-15.26c14.83-9.11,29.04-21.33,43.83-36.09c14.76-14.79,26.98-28.99,36.09-43.82
		c9.03-14.75,15.23-30.72,15.27-48.09c0.04-11.12-2.76-22.41-8.02-32.47l0-0.01c-5.34-10.27-16.31-29.47-33.68-59.1
		c-17.33-29.54-40.88-69.12-70.7-118.8l0.12,0.21c-7.73-13.16-17.1-25.28-27.88-36.06c-10-10-26.21-10-36.2,0
		c-10,10-10,26.21,0,36.2c7.71,7.71,14.41,16.38,19.93,25.78l0.12,0.21c29.76,49.59,53.24,89.07,70.44,118.37
		c17.15,29.22,28.19,48.63,32.38,56.74l0-0.01c1.71,3.4,2.25,5.88,2.29,8.94c0.04,4.61-1.78,11.65-7.73,21.35
		c-5.86,9.62-15.58,21.33-28.63,34.36c-13.02,13.05-24.73,22.76-34.36,28.62c-9.7,5.95-16.74,7.77-21.36,7.73
		c-3.07-0.04-5.55-0.58-8.95-2.29l-11.75,22.74l12.96-22.08l-176.51-103.6l-0.01-0.01c-9.37-5.5-18.04-12.19-25.77-19.93
		c-10-10-26.21-10-36.2,0C112.49,243.24,112.49,259.45,122.49,269.45L122.49,269.45z"/>
</g>
</svg>
